<svg id="Wortbildmarke" xmlns="http://www.w3.org/2000/svg" viewBox="0 0 491.41 266.63"><defs><style>.cls-1{fill:#485e5a;}.cls-2{fill:none;}</style></defs><path id="Wortmarke" class="cls-1" d="M221.2,139.07h5.05v1.44c0,3.85,2.15,5.53,7.44,5.53h11.53c7.92,0,10.57-.24,10.57-5v-.24c0-3.13-1-4.81-7.2-4.81H232.25c-7.44,0-10.33-2.39-10.33-8.4v-1.92c0-5,2.88-7.92,16.1-7.92h8.16c12,0,13.69,3.37,13.69,7.92v1.68h-5.05v-.24c0-4.8-3.13-5-9.13-5h-9.38c-7.68,0-9.37.72-9.37,4.32v1.2c0,2.64,1,4.09,6.48,4.09h14.17c7.92,0,13.45.72,13.45,9.37v.24c0,8.88-8.16,9.14-14.65,9.14h-9.85c-7.92,0-15.38,0-15.38-9.62l0-1.69Zm53.09-20.89h5v5h.24c1.44-3.85,6-5.53,10.57-5.53h10.09c7.69,0,14.65,2.4,14.65,13.45v5.53c0,10.33-4.57,13.68-15.62,13.68H289.17c-5.52,0-8.16-1.44-9.37-4.8h-.24v15.37h-5.29V118.18Zm35.3,13c0-6.24-1.91-9.13-9.61-9.13H289.41c-7,0-9.61,3.6-9.61,9.13v6c0,7.45,4.8,8.89,10.33,8.89h9.61c6.25,0,9.85-1.44,9.85-8.65v-6.24Zm17.06-.48c0-11.53,7.92-12.73,15.62-12.73h8.64c9.61,0,16.34,2.4,16.34,13.69v3.61H331.94v1.91c0,7.21,3.36,9.14,12.72,9.14h7.21c6.72,0,9.37-1,9.85-5.77H367v.72c0,7.2-6,9.38-15.86,9.38h-9.61c-7,0-14.89-1.2-14.89-13Zm35.07-2.16c0-3.13-2.4-6.48-11.05-6.48h-7.92c-8.4,0-10.33,1.44-10.81,8.64h29.78v-2.16Zm19-21.86H386v5.77h-5.29Zm0,11.53H386v31.7h-5.29Zm21.37,0h5.05v4.57h.24c1.91-4.09,6-5,9.61-5H422c10.09,0,13.2,3.13,13.2,11v3.85h-5v-1.44c0-7.92-1.68-9.13-11.05-9.13h-3.37c-5.53,0-8.4,3.61-8.4,7.68v20.17h-5.29v-31.7Zm76.62,28.59h0c-1.43,2.87-3.12,3.61-11.53,3.61H454.43c-8.17,0-10.1-3.61-10.1-9.62v-2.15c0-7.21,5.05-8.17,14.41-8.17h8.64c7,0,9.37.72,11.29,3.85h.24v-6c0-5.77-3.61-6.49-11.77-6.49h-7.92c-6.72,0-7.92,1.68-7.92,4.33v1.2H446v-1.44c0-5.76,3.61-8.16,13.21-8.16h8.4c9.85,0,16.58,1.44,16.58,10.81v21.14h-5.29v-2.87h-.23Zm0-6.73c0-4.32-3.84-4.8-12-4.8h-8.17c-7,0-8.88,1-8.88,5v1c0,3.61,1.2,5,8.64,5h7c9.61,0,13.44-.72,13.44-4.57V140Z" transform="translate(0 0)"/><path id="Bildmarke" class="cls-1" d="M96.08,123.71a9.37,9.37,0,1,0,9.37,9.37A9.56,9.56,0,0,0,96.08,123.71Zm0,13.68a4.09,4.09,0,1,1,4.08-4.08A4.21,4.21,0,0,1,96.08,137.39Zm0-26.17a21.86,21.86,0,1,0,21.86,21.86A21.95,21.95,0,0,0,96.08,111.22Zm0,39.62a17.54,17.54,0,1,1,17.53-17.53A17.62,17.62,0,0,1,96.08,150.84Zm0-51.87a34.11,34.11,0,1,0,34.11,34.11A34.25,34.25,0,0,0,96.08,99Zm0,64.37a30.26,30.26,0,1,1,30.26-30.26A30.28,30.28,0,0,1,96.08,163.34Zm0-75.9A45.88,45.88,0,1,0,142,133.32,46,46,0,0,0,96.08,87.44Zm0,88.15a42.51,42.51,0,1,1,42.51-42.51A42.59,42.59,0,0,1,96.08,175.59Zm0-99.44a57.17,57.17,0,1,0,57.17,57.17A57.31,57.31,0,0,0,96.08,76.15Zm0,111.2a54,54,0,1,1,54-54A54.13,54.13,0,0,1,96.08,187.35Zm0-122.25a68,68,0,1,0,68,68A68.06,68.06,0,0,0,96.08,65.1Zm0,133.54a65.34,65.34,0,1,1,65.33-65.33A65.41,65.41,0,0,1,96.08,198.64Zm0-144.11a78.54,78.54,0,1,0,78.54,78.54A78.72,78.72,0,0,0,96.08,54.53Zm0,154.92a76.39,76.39,0,1,1,76.38-76.38C172.21,175.35,138.11,209.45,96.08,209.45Zm0-165A88.87,88.87,0,1,0,185,133.32,89,89,0,0,0,96.08,44.45Zm0,175.57A86.94,86.94,0,1,1,183,133.08C182.78,181.1,143.86,220,96.08,220Z" transform="translate(0 0)"/><rect class="cls-2" width="491.41" height="266.63"/></svg>